solid Workcell_ASCII
   facet normal 0.000000e+000 1.000000e+000 0.000000e+000
      outer loop
         vertex -8.000000e-001 0.000000e+000 -2.000000e-001
         vertex -8.000000e-001 0.000000e+000 2.000000e-001
         vertex -2.000000e-001 0.000000e+000 -2.000000e-001
      endloop
   endfacet
   facet normal 0.000000e+000 1.000000e+000 0.000000e+000
      outer loop
         vertex -2.000000e-001 0.000000e+000 -2.000000e-001
         vertex -8.000000e-001 0.000000e+000 2.000000e-001
         vertex 2.000000e-001 0.000000e+000 2.000000e-001
      endloop
   endfacet
   facet normal 0.000000e+000 1.000000e+000 0.000000e+000
      outer loop
         vertex -2.000000e-001 0.000000e+000 -2.000000e-001
         vertex 2.000000e-001 0.000000e+000 2.000000e-001
         vertex -2.000000e-001 0.000000e+000 -8.000000e-001
      endloop
   endfacet
   facet normal 0.000000e+000 1.000000e+000 0.000000e+000
      outer loop
         vertex -2.000000e-001 0.000000e+000 -8.000000e-001
         vertex 2.000000e-001 0.000000e+000 2.000000e-001
         vertex 2.000000e-001 0.000000e+000 -8.000000e-001
      endloop
   endfacet
   facet normal 0.000000e+000 0.000000e+000 -1.000000e+000
      outer loop
         vertex 2.000000e-001 0.000000e+000 -8.000000e-001
         vertex 2.000000e-001 -1.000000e+000 -8.000000e-001
         vertex -2.000000e-001 0.000000e+000 -8.000000e-001
      endloop
   endfacet
   facet normal 0.000000e+000 0.000000e+000 -1.000000e+000
      outer loop
         vertex -2.000000e-001 0.000000e+000 -8.000000e-001
         vertex 2.000000e-001 -1.000000e+000 -8.000000e-001
         vertex -8.000000e-001 -1.000000e+000 -8.000000e-001
      endloop
   endfacet
   facet normal 0.000000e+000 0.000000e+000 -1.000000e+000
      outer loop
         vertex -2.000000e-001 0.000000e+000 -8.000000e-001
         vertex -8.000000e-001 -1.000000e+000 -8.000000e-001
         vertex -2.000000e-001 1.000000e+000 -8.000000e-001
      endloop
   endfacet
   facet normal 0.000000e+000 0.000000e+000 -1.000000e+000
      outer loop
         vertex -2.000000e-001 1.000000e+000 -8.000000e-001
         vertex -8.000000e-001 -1.000000e+000 -8.000000e-001
         vertex -8.000000e-001 1.000000e+000 -8.000000e-001
      endloop
   endfacet
   facet normal 1.000000e+000 0.000000e+000 -1.665335e-016
      outer loop
         vertex 2.000000e-001 -1.000000e+000 2.000000e-001
         vertex 2.000000e-001 -1.000000e+000 -8.000000e-001
         vertex 2.000000e-001 0.000000e+000 2.000000e-001
      endloop
   endfacet
   facet normal 1.000000e+000 0.000000e+000 -1.665335e-016
      outer loop
         vertex 2.000000e-001 0.000000e+000 2.000000e-001
         vertex 2.000000e-001 -1.000000e+000 -8.000000e-001
         vertex 2.000000e-001 0.000000e+000 -8.000000e-001
      endloop
   endfacet
   facet normal 0.000000e+000 0.000000e+000 1.000000e+000
      outer loop
         vertex -8.000000e-001 -1.000000e+000 2.000000e-001
         vertex 2.000000e-001 -1.000000e+000 2.000000e-001
         vertex -8.000000e-001 0.000000e+000 2.000000e-001
      endloop
   endfacet
   facet normal 0.000000e+000 0.000000e+000 1.000000e+000
      outer loop
         vertex -8.000000e-001 0.000000e+000 2.000000e-001
         vertex 2.000000e-001 -1.000000e+000 2.000000e-001
         vertex 2.000000e-001 0.000000e+000 2.000000e-001
      endloop
   endfacet
   facet normal -1.000000e+000 0.000000e+000 1.110223e-016
      outer loop
         vertex -8.000000e-001 1.000000e+000 -2.000000e-001
         vertex -8.000000e-001 1.000000e+000 -8.000000e-001
         vertex -8.000000e-001 0.000000e+000 -2.000000e-001
      endloop
   endfacet
   facet normal -1.000000e+000 0.000000e+000 1.110223e-016
      outer loop
         vertex -8.000000e-001 0.000000e+000 -2.000000e-001
         vertex -8.000000e-001 1.000000e+000 -8.000000e-001
         vertex -8.000000e-001 -1.000000e+000 -8.000000e-001
      endloop
   endfacet
   facet normal -1.000000e+000 0.000000e+000 1.110223e-016
      outer loop
         vertex -8.000000e-001 0.000000e+000 -2.000000e-001
         vertex -8.000000e-001 -1.000000e+000 -8.000000e-001
         vertex -8.000000e-001 0.000000e+000 2.000000e-001
      endloop
   endfacet
   facet normal -1.000000e+000 0.000000e+000 1.110223e-016
      outer loop
         vertex -8.000000e-001 0.000000e+000 2.000000e-001
         vertex -8.000000e-001 -1.000000e+000 -8.000000e-001
         vertex -8.000000e-001 -1.000000e+000 2.000000e-001
      endloop
   endfacet
   facet normal 0.000000e+000 -1.000000e+000 0.000000e+000
      outer loop
         vertex 2.000000e-001 -1.000000e+000 2.000000e-001
         vertex -8.000000e-001 -1.000000e+000 2.000000e-001
         vertex 2.000000e-001 -1.000000e+000 -8.000000e-001
      endloop
   endfacet
   facet normal 0.000000e+000 -1.000000e+000 0.000000e+000
      outer loop
         vertex 2.000000e-001 -1.000000e+000 -8.000000e-001
         vertex -8.000000e-001 -1.000000e+000 2.000000e-001
         vertex -8.000000e-001 -1.000000e+000 -8.000000e-001
      endloop
   endfacet
   facet normal 1.000000e+000 0.000000e+000 -1.850372e-016
      outer loop
         vertex -2.000000e-001 1.000000e+000 -8.000000e-001
         vertex -2.000000e-001 1.000000e+000 -2.000000e-001
         vertex -2.000000e-001 0.000000e+000 -8.000000e-001
      endloop
   endfacet
   facet normal 1.000000e+000 0.000000e+000 -1.850372e-016
      outer loop
         vertex -2.000000e-001 0.000000e+000 -8.000000e-001
         vertex -2.000000e-001 1.000000e+000 -2.000000e-001
         vertex -2.000000e-001 0.000000e+000 -2.000000e-001
      endloop
   endfacet
   facet normal 0.000000e+000 0.000000e+000 1.000000e+000
      outer loop
         vertex -2.000000e-001 1.000000e+000 -2.000000e-001
         vertex -8.000000e-001 1.000000e+000 -2.000000e-001
         vertex -2.000000e-001 0.000000e+000 -2.000000e-001
      endloop
   endfacet
   facet normal 0.000000e+000 0.000000e+000 1.000000e+000
      outer loop
         vertex -2.000000e-001 0.000000e+000 -2.000000e-001
         vertex -8.000000e-001 1.000000e+000 -2.000000e-001
         vertex -8.000000e-001 0.000000e+000 -2.000000e-001
      endloop
   endfacet
   facet normal 0.000000e+000 1.000000e+000 0.000000e+000
      outer loop
         vertex -8.000000e-001 1.000000e+000 -8.000000e-001
         vertex -8.000000e-001 1.000000e+000 -2.000000e-001
         vertex -2.000000e-001 1.000000e+000 -8.000000e-001
      endloop
   endfacet
   facet normal 0.000000e+000 1.000000e+000 0.000000e+000
      outer loop
         vertex -2.000000e-001 1.000000e+000 -8.000000e-001
         vertex -8.000000e-001 1.000000e+000 -2.000000e-001
         vertex -2.000000e-001 1.000000e+000 -2.000000e-001
      endloop
   endfacet
endsolid